<svg xmlns="http://www.w3.org/2000/svg" viewBox="0 0 320 320" width="320" height="320" role="img" aria-label="ªx>	eiœœ">
  <defs>
    <linearGradient id="shell" x1="0" y1="0" x2="0" y2="1">
      <stop offset="0%" stop-color="#4FAE9F" />
      <stop offset="100%" stop-color="#2F8377" />
    </linearGradient>
    <linearGradient id="paper" x1="0" y1="0" x2="1" y2="1">
      <stop offset="0%" stop-color="#FBF8F2" />
      <stop offset="100%" stop-color="#EFE9DC" />
    </linearGradient>
  </defs>
  <rect width="320" height="320" rx="28" fill="url(#paper)" />
  <ellipse cx="160" cy="243" rx="96" ry="14" fill="#23211C" opacity="0.07" />

  <!-- Œs -->
  <ellipse cx="104" cy="222" rx="26" ry="16" fill="#7FC7BA" />
  <ellipse cx="216" cy="222" rx="26" ry="16" fill="#7FC7BA" />

  <!-- - -->
  <g>
    <ellipse cx="232" cy="176" rx="34" ry="30" fill="#8FD0C3" />
    <circle cx="245" cy="170" r="4.2" fill="#23211C" />
    <path d="M236 188c5 3 11 3 16 0" stroke="#23211C" stroke-opacity="0.55" stroke-width="3" stroke-linecap="round" fill="none" />
  </g>

  <!-- ¼ -->
  <path d="M46 196c0-52 46-92 108-92s104 40 104 92z" fill="url(#shell)" />
  <path d="M46 196c0-52 46-92 108-92s104 40 104 92z" fill="none" stroke="#23211C" stroke-opacity="0.12" stroke-width="3" />

  <!-- ¼
	SÔI -->
  <path d="M84 190c2-38 26-62 58-64" stroke="#F2A65A" stroke-width="9" stroke-linecap="round" fill="none" opacity="0.9" />
  <path d="M124 190c1-34 16-56 40-60" stroke="#F7F4ED" stroke-width="9" stroke-linecap="round" fill="none" opacity="0.85" />
  <path d="M166 190c2-30 14-48 34-52" stroke="#5C6BA8" stroke-width="9" stroke-linecap="round" fill="none" opacity="0.9" />

  <!-- y2 -->
  <rect x="46" y="192" width="212" height="18" rx="9" fill="#E9DFC9" />
  <rect x="46" y="192" width="212" height="18" rx="9" fill="none" stroke="#23211C" stroke-opacity="0.1" stroke-width="2" />
</svg>
